<?xml version="1.0" encoding="iso-8859-1"?>
<!-- Generator: Adobe Illustrator 19.0.0, SVG Export Plug-In . SVG Version: 6.00 Build 0)  -->
<svg version="1.1" id="Layer_1" xmlns="http://www.w3.org/2000/svg" xmlns:xlink="http://www.w3.org/1999/xlink" x="0px" y="0px"
	 viewBox="0 0 512 512" style="enable-background:new 0 0 512 512;" xml:space="preserve">
<g>
	<g>
		<path d="M426.521,441.916L414.64,317.269C412.737,283.627,386.145,256,352.997,256h-33.028v-21.333h42.667
			c11.782,0,21.333-9.551,21.333-21.333v-64c0-11.782-9.551-21.333-21.333-21.333h-32.776c7.265-12.554,11.443-27.118,11.443-42.667
			C341.303,38.202,303.101,0,255.969,0s-85.333,38.202-85.333,85.333c0,15.549,4.179,30.113,11.443,42.667h-32.776
			c-11.782,0-21.333,9.551-21.333,21.333v64c0,11.782,9.551,21.333,21.333,21.333h42.667V256h-33.02
			c-33.156,0-59.772,27.642-61.705,62.101L85.489,441.088C83.283,479.424,110.968,512,147.131,512h217.685
			C400.971,512,428.633,479.438,426.521,441.916z M213.303,85.333c0-23.567,19.099-42.667,42.667-42.667
			s42.667,19.099,42.667,42.667S279.536,128,255.969,128S213.303,108.901,213.303,85.333z M170.636,170.667h170.667V192h-42.667
			h-85.333h-42.667V170.667z M234.636,234.667h42.667V256h-42.667V234.667z M364.816,469.333H147.131
			c-10.564,0-19.907-10.994-19.107-25.002l11.757-123.008c0.775-13.519,9.573-22.656,19.169-22.656h54.353h85.333h54.362
			c9.589,0,18.382,9.135,19.107,21.844l11.881,124.631C384.712,458.341,375.373,469.333,364.816,469.333z"/>
	</g>
</g>
<g>
</g>
<g>
</g>
<g>
</g>
<g>
</g>
<g>
</g>
<g>
</g>
<g>
</g>
<g>
</g>
<g>
</g>
<g>
</g>
<g>
</g>
<g>
</g>
<g>
</g>
<g>
</g>
<g>
</g>
</svg>
